<svg width="42" height="26" viewBox="0 0 42 26" fill="none" xmlns="http://www.w3.org/2000/svg">
<path d="M41 13.0021C37.2696 20.1265 29.713 25 20.9957 25C12.2783 25 4.72609 20.1265 1 13.0021C4.72174 5.87774 12.2826 1 20.9957 1C29.7087 1 37.2739 5.87774 41 13.0021Z" stroke="white" stroke-miterlimit="10"/>
<path d="M20.5 25C27.4036 25 33 19.6274 33 13C33 6.37258 27.4036 1 20.5 1C13.5964 1 8 6.37258 8 13C8 19.6274 13.5964 25 20.5 25Z" stroke="white" stroke-miterlimit="10"/>
<path d="M20.5 19C24.0899 19 27 16.3137 27 13C27 9.68629 24.0899 7 20.5 7C16.9102 7 14 9.68629 14 13C14 16.3137 16.9102 19 20.5 19Z" stroke="white" stroke-miterlimit="10"/>
</svg>
