<svg width="23" height="23" viewBox="0 0 23 23" fill="none" xmlns="http://www.w3.org/2000/svg">
<g clip-path="url(#clip0_2103_161)">
<path d="M22.262 11.3078C22.262 5.25646 17.3591 0.353516 11.3077 0.353516C5.25634 0.353516 0.353394 5.25646 0.353394 11.3078C0.353394 16.7753 4.35923 21.3072 9.59611 22.1297V14.4744H6.81335V11.3078H9.59611V8.89436C9.59611 6.14915 11.2304 4.63277 13.7336 4.63277C14.9324 4.63277 16.1859 4.84656 16.1859 4.84656V7.54097H14.8043C13.4438 7.54097 13.0193 8.38551 13.0193 9.2517V11.3078H16.0574L15.5715 14.4744H13.0193V22.1297C18.2562 21.3072 22.262 16.7753 22.262 11.3078Z" fill="white"/>
</g>
<defs>
<clipPath id="clip0_2103_161">
<rect width="22.6154" height="22.6154" fill="white"/>
</clipPath>
</defs>
</svg>
