<svg width="319" height="209" viewBox="0 0 319 209" fill="none" xmlns="http://www.w3.org/2000/svg">
<g clip-path="url(#clip0_182_603)">
<path d="M241.538 98.8705C254.035 98.8705 259.306 93.3725 260.956 86.0447L279.725 2.36663C279.901 1.58483 279.31 0.841064 278.518 0.841064H263.491C262.913 0.841064 262.41 1.24676 262.284 1.81726L243.758 85.1277C243.21 86.6998 242.845 87.0928 241.58 87.0928C240.315 87.0928 239.59 86.6998 240.139 85.1277L258.539 2.36241C258.711 1.58061 258.124 0.841064 257.332 0.841064H242.481C241.903 0.841064 241.4 1.24676 241.274 1.81303L222.388 85.9095C220.733 93.3683 225.97 98.8663 239.012 98.8663H241.546L241.538 98.8705Z" fill="white"/>
<path d="M297.3 56.2009C304.363 56.2009 308.9 53.585 310.551 46.384L318.452 10.9156C319.923 3.71877 315.222 0.83667 307.438 0.83667H284.346C283.868 0.83667 283.454 1.17052 283.349 1.6396L261.937 97.0152C261.798 97.6279 262.259 98.2111 262.883 98.2111H266.75C273.734 98.2111 279.784 93.3301 281.317 86.4587L287.861 57.1179C287.978 56.5812 288.452 56.2009 288.996 56.2009H297.304H297.3ZM298.071 12.0354C298.234 11.3044 298.879 10.7888 299.621 10.7888C301.07 10.7888 301.611 11.5748 301.242 13.0116L294.262 44.0301C293.714 45.6022 293.169 45.8642 291.719 45.8642C291.07 45.8642 290.588 45.2557 290.731 44.6175L298.066 12.0354H298.071Z" fill="white"/>
<path d="M127.203 114.523C126.764 116.362 128.146 118.132 130.023 118.132H154.351C163.493 118.132 168.16 113.56 170.728 103.308L191.968 14.0385C194.511 4.41603 187.662 0.790161 179.295 0.790161H156.241C155.16 0.790161 154.221 1.53815 153.966 2.59464L127.203 114.523ZM169.4 14.3512C169.534 13.7976 170.024 13.4046 170.59 13.4046H171.373C173.493 13.4046 173.656 14.4907 173.015 16.3501C173.003 16.3839 172.994 16.4177 172.986 16.4515L152.294 102.454C152.286 102.496 152.273 102.538 152.256 102.576C151.611 104.423 151.364 105.197 149.248 105.197C148.457 105.197 147.87 104.449 148.059 103.671L169.4 14.3512Z" fill="white"/>
<path d="M193.925 118.923C206.958 118.923 212.237 113.56 214.801 103.464L221.89 73.4977C223.75 66.2418 221.366 62.7723 215.48 54.7303L209.204 46.6883C207.729 44.7951 207.017 43.2188 207.725 40.2226L213.858 14.5161C214.52 12.6229 214.742 11.9932 216.297 11.9932C217.851 11.9932 218.002 13.0962 217.759 14.1992L210.846 43.0117C210.645 43.84 211.269 44.6429 212.116 44.6429H226.737C227.34 44.6429 227.864 44.2246 228.006 43.6329L235.3 13.2568C237.194 5.2148 232.937 0.00842285 219.904 0.00842285H215.626C202.4 0.00842285 197.515 5.2148 195.387 14.2034L189.254 39.9099C187.373 47.6391 189.342 51.7383 194.52 58.204L200.796 66.246C202.823 68.9253 203.548 70.1888 202.832 73.3414L195.529 103.781C194.868 105.674 194.457 106.147 193.095 106.147C191.344 106.147 191.202 104.884 191.445 103.781L199.648 69.3521C199.794 68.7309 199.329 68.1392 198.697 68.1392H182.81C182.358 68.1392 181.968 68.452 181.859 68.8915L173.552 103.625C171.009 113.247 176.995 118.923 189.639 118.923H193.917H193.925Z" fill="white"/>
<path d="M105.85 0.439575H81.2659C80.8763 0.439575 80.5412 0.710036 80.449 1.09037L59.8662 88.5296C59.7698 88.9437 59.4011 89.2353 58.9822 89.2353H55.019C54.4324 89.2353 53.9967 88.6817 54.135 88.107L74.634 1.02276C74.7052 0.72694 74.479 0.439575 74.1774 0.439575L53.7663 0.460705C50.7667 0.460705 48.165 2.53987 47.4695 5.48114C47.0506 7.26026 45.4754 8.51537 43.6613 8.51537C36.7864 8.52382 20.8204 8.52382 20.8204 8.52382C16.6058 8.52382 12.9526 11.4566 12.0016 15.5981L10.8955 20.6481C10.4766 22.5582 11.813 24.405 13.7444 24.5867C14.134 24.6247 14.4901 24.6627 14.7875 24.7092C29.2496 26.9152 38.0893 39.3141 35.8228 54.6966L0.375792 204.507C-0.152081 206.746 1.52789 208.893 3.81115 208.893H24.4149C25.0224 208.893 25.5503 208.475 25.6927 207.879L47.0841 118.09C47.1637 117.76 47.4528 117.532 47.7879 117.532H52.1366C52.6058 117.532 52.9494 117.972 52.8404 118.432L31.6753 207.262C31.4784 208.094 32.1026 208.893 32.9531 208.893H37.0126C48.9652 208.893 59.3592 200.619 62.1327 188.892L106.516 1.28899C106.616 0.857945 106.294 0.439575 105.85 0.439575Z" fill="white"/>
<path d="M109.616 2.09606L82.3258 116.248C82.0954 117.211 82.8202 118.137 83.8005 118.137H95.8494C96.5533 118.137 97.1607 117.651 97.3241 116.962L113.768 47.6138C113.852 47.2588 93.9767 148.077 115.071 151.369L150.078 2.89054C150.333 1.81714 149.525 0.786011 148.431 0.786011H136.935C136.152 0.786011 135.469 1.33116 135.289 2.10028L120.643 64.805C120.584 65.0501 120.224 64.9825 120.257 64.7331L128.536 2.7215C128.674 1.69882 127.882 0.790237 126.86 0.790237H111.258C110.479 0.790237 109.796 1.33116 109.616 2.09606Z" fill="white"/>
</g>
<defs>
<clipPath id="clip0_182_603">
<rect width="318.441" height="208.897" fill="white" transform="translate(0.279419)"/>
</clipPath>
</defs>
</svg>
