<svg width="24" height="23" viewBox="0 0 24 23" fill="none" xmlns="http://www.w3.org/2000/svg">
<path d="M11.7736 6.22809C8.96435 6.22809 6.69839 8.49405 6.69839 11.3033C6.69839 14.1126 8.96435 16.3785 11.7736 16.3785C14.5829 16.3785 16.8488 14.1126 16.8488 11.3033C16.8488 8.49405 14.5829 6.22809 11.7736 6.22809ZM11.7736 14.6029C9.95819 14.6029 8.47405 13.1231 8.47405 11.3033C8.47405 9.48347 9.95377 8.00376 11.7736 8.00376C13.5934 8.00376 15.0732 9.48347 15.0732 11.3033C15.0732 13.1231 13.589 14.6029 11.7736 14.6029ZM18.2402 6.02049C18.2402 6.67864 17.7101 7.20427 17.0564 7.20427C16.3983 7.20427 15.8726 6.67422 15.8726 6.02049C15.8726 5.36677 16.4027 4.83672 17.0564 4.83672C17.7101 4.83672 18.2402 5.36677 18.2402 6.02049ZM21.6016 7.22194C21.5265 5.63621 21.1643 4.23158 20.0026 3.07431C18.8453 1.91704 17.4407 1.55484 15.855 1.47533C14.2207 1.38257 9.32213 1.38257 7.68782 1.47533C6.10651 1.55042 4.70188 1.91262 3.54019 3.06989C2.3785 4.22716 2.02072 5.63179 1.94121 7.21752C1.84845 8.85183 1.84845 13.7504 1.94121 15.3847C2.0163 16.9704 2.3785 18.375 3.54019 19.5323C4.70188 20.6896 6.10209 21.0518 7.68782 21.1313C9.32213 21.224 14.2207 21.224 15.855 21.1313C17.4407 21.0562 18.8453 20.694 20.0026 19.5323C21.1599 18.375 21.5221 16.9704 21.6016 15.3847C21.6943 13.7504 21.6943 8.85625 21.6016 7.22194ZM19.4902 17.1383C19.1457 18.004 18.4787 18.671 17.6085 19.0199C16.3055 19.5367 13.2136 19.4175 11.7736 19.4175C10.3336 19.4175 7.23728 19.5323 5.93866 19.0199C5.07291 18.6754 4.40594 18.0084 4.05699 17.1383C3.54019 15.8352 3.65945 12.7433 3.65945 11.3033C3.65945 9.86334 3.54461 6.76698 4.05699 5.46836C4.40152 4.60261 5.0685 3.93564 5.93866 3.58669C7.24169 3.06989 10.3336 3.18915 11.7736 3.18915C13.2136 3.18915 16.3099 3.07431 17.6085 3.58669C18.4743 3.93122 19.1413 4.5982 19.4902 5.46836C20.007 6.77139 19.8878 9.86334 19.8878 11.3033C19.8878 12.7433 20.007 15.8396 19.4902 17.1383Z" fill="white"/>
</svg>
