<?xml version="1.0" encoding="UTF-8"?>
<svg id="Layer_1" xmlns="http://www.w3.org/2000/svg" version="1.1" viewBox="0 0 23 23">
  <!-- Generator: Adobe Illustrator 29.3.1, SVG Export Plug-In . SVG Version: 2.1.0 Build 151)  -->
  <defs>
    <style>
      .st0 {
        fill: #fff;
        fill-rule: evenodd;
      }
    </style>
  </defs>
  <path class="st0" d="M20.1.5H2.9C1.6.5.5,1.6.5,2.9v17.1c0,1.4,1.1,2.4,2.4,2.4h17.1c1.4,0,2.4-1.1,2.4-2.4V2.9c0-1.4-1.1-2.4-2.4-2.4ZM7.2,19.4h-3.3v-10.6h3.3v10.6ZM5.5,7.5c-1.1,0-1.9-.9-1.9-2s.9-2,1.9-2,1.9.9,1.9,2-.9,2-1.9,2ZM19.4,19.4h-3.3v-5.6c0-1.5-.6-2.4-1.8-2.4s-2,.9-2,2.4v5.6h-3.1v-10.6h3.1v1.4s.9-1.8,3.2-1.8,3.9,1.4,3.9,4.2v6.7Z"/>
</svg>