<svg width="77" height="51" viewBox="0 0 77 51" fill="none" xmlns="http://www.w3.org/2000/svg">
<g clip-path="url(#clip0_2089_1964)">
<path d="M58.3371 24.1381C61.3589 24.1381 62.6333 22.7959 63.0324 21.0069L67.5708 0.577777C67.6133 0.386909 67.4705 0.205326 67.279 0.205326H63.6453C63.5055 0.205326 63.384 0.304371 63.3536 0.443653L58.874 20.783C58.7413 21.1668 58.6531 21.2627 58.3472 21.2627C58.0413 21.2627 57.866 21.1668 57.9987 20.783L62.4479 0.576745C62.4895 0.385877 62.3476 0.205326 62.1562 0.205326H58.565C58.4252 0.205326 58.3036 0.304371 58.2733 0.442622L53.7065 20.9739C53.3064 22.7948 54.5727 24.1371 57.7262 24.1371H58.3391L58.3371 24.1381Z" fill="white"/>
<path d="M71.8204 13.7208C73.5284 13.7208 74.6255 13.0822 75.0246 11.3242L76.9352 2.66492C77.2908 0.907901 76.1542 0.204268 74.272 0.204268H68.6882C68.5727 0.204268 68.4724 0.285773 68.4471 0.400294L63.2695 23.6852C63.2361 23.8348 63.3475 23.9772 63.4985 23.9772H64.4335C66.1222 23.9772 67.585 22.7855 67.9558 21.108L69.5381 13.9447C69.5665 13.8137 69.6809 13.7208 69.8126 13.7208H71.8215H71.8204ZM72.0068 2.93833C72.0464 2.75984 72.2024 2.63397 72.3817 2.63397C72.7322 2.63397 72.8629 2.82587 72.7737 3.17665L71.086 10.7495C70.9533 11.1333 70.8216 11.1972 70.4711 11.1972C70.3141 11.1972 70.1976 11.0487 70.232 10.8929L72.0058 2.93833H72.0068Z" fill="white"/>
<path d="M30.6906 27.9596C30.5843 28.4084 30.9186 28.8407 31.3724 28.8407H37.255C39.4655 28.8407 40.594 27.7244 41.215 25.2214L46.351 3.42736C46.9659 1.07813 45.3096 0.192913 43.2866 0.192913H37.7119C37.4506 0.192913 37.2236 0.375528 37.1618 0.633458L30.6906 27.9596ZM40.8938 3.5037C40.9262 3.36855 41.0448 3.2726 41.1815 3.2726H41.371C41.8835 3.2726 41.9231 3.53775 41.7681 3.99171C41.765 3.99996 41.763 4.00821 41.761 4.01647L36.7576 25.013C36.7556 25.0233 36.7526 25.0336 36.7485 25.0429C36.5925 25.4938 36.5328 25.6826 36.0212 25.6826C35.8297 25.6826 35.6879 25.5 35.7335 25.3101L40.8938 3.5037Z" fill="white"/>
<path d="M46.8241 29.0336C49.9756 29.0336 51.2521 27.7244 51.872 25.2596L53.5861 17.9437C54.0358 16.1722 53.4594 15.3252 52.0361 13.3618L50.5186 11.3984C50.162 10.9362 49.9898 10.5514 50.161 9.8199L51.6441 3.54394C51.8042 3.08173 51.8578 2.928 52.2337 2.928C52.6095 2.928 52.646 3.19728 52.5872 3.46656L50.9157 10.5008C50.8671 10.703 51.0181 10.8991 51.2227 10.8991H54.7581C54.904 10.8991 55.0306 10.7969 55.0651 10.6525L56.8288 3.23649C57.2866 1.27312 56.2574 0.00204468 53.1059 0.00204468H52.0716C48.8735 0.00204468 47.6923 1.27312 47.1777 3.46759L45.6946 9.74355C45.2398 11.6306 45.7159 12.6313 46.968 14.2099L48.4855 16.1732C48.9758 16.8273 49.151 17.1358 48.9778 17.9055L47.2121 25.337C47.0521 25.7992 46.9528 25.9147 46.6235 25.9147C46.2001 25.9147 46.1657 25.6063 46.2244 25.337L48.2079 16.9315C48.2434 16.7799 48.1309 16.6354 47.978 16.6354H44.1366C44.0272 16.6354 43.933 16.7118 43.9066 16.8191L41.8978 25.2988C41.2829 27.648 42.7305 29.0336 45.7878 29.0336H46.8221H46.8241Z" fill="white"/>
<path d="M25.5273 0.107313H19.5829C19.4887 0.107313 19.4076 0.173343 19.3854 0.266198L14.4084 21.6135C14.3851 21.7146 14.2959 21.7858 14.1946 21.7858H13.2363C13.0945 21.7858 12.9891 21.6507 13.0225 21.5103L17.9793 0.249691C17.9965 0.17747 17.9418 0.107313 17.8689 0.107313L12.9334 0.112472C12.2081 0.112472 11.579 0.620078 11.4108 1.33816C11.3095 1.77251 10.9286 2.07893 10.49 2.07893C8.82761 2.08099 4.96698 2.08099 4.96698 2.08099C3.94787 2.08099 3.06452 2.79701 2.83456 3.80809L2.56712 5.041C2.46582 5.50734 2.78897 5.9582 3.25598 6.00256C3.35019 6.01185 3.4363 6.02113 3.50822 6.03248C7.00518 6.57104 9.14266 9.59811 8.59462 13.3536L0.0234153 49.928C-0.104226 50.4749 0.301997 50.999 0.854096 50.999H5.83615C5.98304 50.999 6.11068 50.8968 6.14512 50.7514L11.3176 28.8304C11.3369 28.7499 11.4068 28.6942 11.4878 28.6942H12.5393C12.6528 28.6942 12.7359 28.8015 12.7095 28.914L7.59172 50.6007C7.54411 50.804 7.69505 50.999 7.90069 50.999H8.88232C11.7725 50.999 14.2858 48.9789 14.9564 46.1158L25.6884 0.314689C25.7127 0.209453 25.6347 0.107313 25.5273 0.107313Z" fill="white"/>
<path d="M26.438 0.511726L19.8391 28.3806C19.7834 28.6158 19.9587 28.8417 20.1957 28.8417H23.1092C23.2794 28.8417 23.4263 28.7231 23.4658 28.5549L27.4419 11.6244C27.4621 11.5377 22.6564 36.1515 27.7569 36.9552L36.2218 0.705689C36.2836 0.443632 36.088 0.191893 35.8236 0.191893H33.0439C32.8545 0.191893 32.6894 0.324984 32.6458 0.512758L29.1043 15.8214C29.0901 15.8813 29.003 15.8648 29.0111 15.8039L31.0128 0.66442C31.0462 0.414744 30.8548 0.192924 30.6076 0.192924H26.8351C26.6467 0.192924 26.4815 0.324985 26.438 0.511726Z" fill="white"/>
</g>
<defs>
<clipPath id="clip0_2089_1964">
<rect width="77" height="51" fill="white"/>
</clipPath>
</defs>
</svg>
