<svg width="23" height="23" viewBox="0 0 23 23" fill="none" xmlns="http://www.w3.org/2000/svg">
<g clip-path="url(#clip0_2103_169)">
<path d="M21.9656 6.12856C21.719 5.19999 20.9924 4.46868 20.0698 4.2205C18.3976 3.76953 11.6923 3.76953 11.6923 3.76953C11.6923 3.76953 4.98699 3.76953 3.31475 4.2205C2.39219 4.46872 1.66559 5.19999 1.41898 6.12856C0.970917 7.81164 0.970917 11.3232 0.970917 11.3232C0.970917 11.3232 0.970917 14.8348 1.41898 16.5179C1.66559 17.4465 2.39219 18.1473 3.31475 18.3955C4.98699 18.8465 11.6923 18.8465 11.6923 18.8465C11.6923 18.8465 18.3976 18.8465 20.0698 18.3955C20.9924 18.1473 21.719 17.4465 21.9656 16.5179C22.4137 14.8348 22.4137 11.3232 22.4137 11.3232C22.4137 11.3232 22.4137 7.81164 21.9656 6.12856ZM9.49927 14.5115V8.13497L15.1036 11.3233L9.49927 14.5115Z" fill="white"/>
</g>
<defs>
<clipPath id="clip0_2103_169">
<rect width="22.6154" height="22.6154" fill="white" transform="translate(0.384613)"/>
</clipPath>
</defs>
</svg>
