<?xml version="1.0" encoding="UTF-8"?>
<svg id="Layer_1" xmlns="http://www.w3.org/2000/svg" version="1.1" viewBox="0 0 25 45">
  <!-- Generator: Adobe Illustrator 29.2.1, SVG Export Plug-In . SVG Version: 2.1.0 Build 116)  -->
  <defs>
    <style>
      .st0 {
        fill: none;
        stroke: #fff;
        stroke-miterlimit: 10;
      }
    </style>
  </defs>
  <path class="st0" d="M24.5,36.5c-2.2,4.3-6.8,7.2-12,7.2s-9.8-2.9-12-7.2c2.2-4.3,6.8-7.2,12-7.2s9.8,2.9,12,7.2Z"/>
  <path class="st0" d="M12.2,43.7c4.1,0,7.5-3.2,7.5-7.2s-3.4-7.2-7.5-7.2-7.5,3.2-7.5,7.2,3.4,7.2,7.5,7.2Z"/>
  <path class="st0" d="M12.2,40.1c2.2,0,3.9-1.6,3.9-3.6s-1.7-3.6-3.9-3.6-3.9,1.6-3.9,3.6,1.7,3.6,3.9,3.6Z"/>
</svg>