<?xml version="1.0" encoding="UTF-8"?>
<svg id="Layer_1" xmlns="http://www.w3.org/2000/svg" version="1.1" viewBox="0 0 25 45">
  <!-- Generator: Adobe Illustrator 29.2.1, SVG Export Plug-In . SVG Version: 2.1.0 Build 116)  -->
  <defs>
    <style>
      .st0 {
        fill: #fff;
        fill-opacity: 0;
      }

      .st1 {
        fill: none;
        stroke: #fff;
        stroke-miterlimit: 10;
        stroke-opacity: 0;
      }
    </style>
  </defs>
  <path class="st0" d="M18.8,15H4.5c-2,0-3.5,1.6-3.5,3.5v15.9c0,2,1.6,3.5,3.5,3.5h14.3c2,0,3.5-1.6,3.5-3.5v-15.9c0-2-1.6-3.5-3.5-3.5ZM21.5,33.9c0,1.8-1.5,3.2-3.3,3.2H5.2c-1.8,0-3.3-1.5-3.3-3.2v-14.8c0-1.8,1.5-3.2,3.3-3.2h13c1.8,0,3.3,1.5,3.3,3.2v14.9h0Z"/>
  <path class="st1" d="M6.1,11.6h11.2c.6,0,1.1.5,1.1,1v2.5H5.1v-2.5c0-.6.5-1,1.1-1h0Z"/>
  <path class="st1" d="M7.2,8.6h9c.6,0,1.1.5,1.1,1v1.9H6.1v-1.9c0-.6.5-1,1.1-1Z"/>
  <path class="st1" d="M17.3,41.5H6.1c-.6,0-1.1-.5-1.1-1v-2.5h13.2v2.5c0,.6-.5,1-1.1,1h0Z"/>
  <path class="st1" d="M16.2,44.4H7.2c-.6,0-1.1-.5-1.1-1v-1.9h11.1v1.9c0,.6-.5,1-1.1,1h0Z"/>
  <path class="st0" d="M24,25.4h-1.6v2.4h1.6v-2.4Z"/>
</svg>