<svg width="27" height="42" viewBox="0 0 27 42" fill="none" xmlns="http://www.w3.org/2000/svg">
<path d="M13.6942 1.08068C15.5668 1.08068 17.0909 2.60477 17.0909 4.4774C17.0909 6.35004 15.5668 7.87412 13.6942 7.87412C11.8216 7.87412 10.2975 6.35004 10.2975 4.4774C10.2975 2.60477 11.8216 1.08068 13.6942 1.08068ZM13.6942 1C11.774 1 10.2168 2.55717 10.2168 4.4774C10.2168 6.39764 11.774 7.95481 13.6942 7.95481C15.6144 7.95481 17.1716 6.39764 17.1716 4.4774C17.1716 2.55717 15.6144 1 13.6942 1Z" fill="white" stroke="white"/>
<path d="M24.8099 1.08068C25.2448 1.08068 25.6579 1.26867 25.9435 1.59705C26.2251 1.92139 26.3534 2.34981 26.2945 2.77259C25.9669 5.12044 24.9874 7.32629 23.4617 9.15213C21.953 10.9578 19.9827 12.3076 17.7656 13.0563L17.7067 13.0765L17.7107 13.1386L18.4247 24.1034L18.4296 24.1792H18.4659L20.863 40.9409H16.4271L14.0284 24.1679L14.0187 24.0985H13.3974L13.3878 24.1679L10.9891 40.9409H6.55317L8.95024 24.1792H8.96153L8.96637 24.1034L9.68041 13.1386L9.68444 13.0765L9.62555 13.0563C7.40759 12.3076 5.43814 10.9578 3.92938 9.15213C2.40126 7.32629 1.42178 5.11963 1.09502 2.77259C1.03612 2.34981 1.1636 1.92139 1.44598 1.59705C1.7316 1.26867 2.14469 1.08068 2.57957 1.08068C3.32184 1.08068 3.95762 1.63013 4.06009 2.35869C4.38201 4.66055 5.52689 6.77685 7.28334 8.31707C9.05674 9.87182 11.3336 10.7287 13.6952 10.7287C16.0567 10.7287 18.3328 9.87262 20.1062 8.31707C21.8634 6.77685 23.0083 4.66055 23.3294 2.35869C23.4311 1.63013 24.0677 1.08068 24.8099 1.08068ZM24.8099 1C24.0273 1 23.3585 1.57284 23.2495 2.3482C22.5936 7.03906 18.5651 10.6488 13.6943 10.6488C8.82356 10.6488 4.7951 7.03826 4.13996 2.3482C4.03185 1.57284 3.36219 1 2.57957 1C1.6259 1 0.883628 1.8399 1.01514 2.78308C1.69045 7.62966 5.07991 11.6073 9.59811 13.1322L8.88408 24.0969H8.87843L6.45796 41.02H11.0568L13.466 24.1776H13.9477L16.3569 41.02H20.9557L18.5353 24.0969H18.5046L17.7906 13.1322C22.3088 11.6073 25.6982 7.62966 26.3736 2.78308C26.5051 1.8391 25.7628 1 24.8099 1Z" fill="white" stroke="white"/>
</svg>
