<?xml version="1.0" encoding="UTF-8"?>
<svg id="Layer_1" xmlns="http://www.w3.org/2000/svg" version="1.1" viewBox="0 0 25 45">
  <!-- Generator: Adobe Illustrator 29.3.1, SVG Export Plug-In . SVG Version: 2.1.0 Build 151)  -->
  <defs>
    <style>
      .st0 {
        fill: #fff;
      }

      .st0, .st1 {
        stroke: #fff;
      }

      .st1 {
        fill: none;
      }
    </style>
  </defs>
  <path class="st0" d="M12.7,13.9c1.2,0,2.3,1,2.3,2.3s-1,2.3-2.3,2.3-2.3-1-2.3-2.3,1-2.3,2.3-2.3ZM12.7,13.8c-1.2,0-2.3,1-2.3,2.3s1,2.3,2.3,2.3,2.3-1,2.3-2.3-1-2.3-2.3-2.3Z"/>
  <path class="st1" d="M20.1,13.9c.3,0,.6.1.7.4.2.2.3.5.2.8-.2,1.5-.9,3-1.9,4.2s-2.3,2.1-3.8,2.6h0l.4,7.2h0l1.6,11.1h-2.9l-1.6-11.1h-.4l-1.6,11.2h-2.9l1.6-11.1h0l.4-7.3h0c-1.5-.5-2.8-1.4-3.8-2.6s-1.7-2.7-1.9-4.2c0-.3,0-.6.2-.8s.4-.4.7-.4c.5,0,.9.4.9.9.2,1.5.9,2.9,2.1,3.9,1.2,1,2.7,1.6,4.2,1.6s3.1-.6,4.2-1.6c1.2-1,1.9-2.4,2.1-3.9,0-.5.5-.9.9-.9h.6Z"/>
</svg>