<?xml version="1.0" encoding="UTF-8"?>
<svg id="Layer_1" xmlns="http://www.w3.org/2000/svg" version="1.1" viewBox="0 0 25 45">
  <!-- Generator: Adobe Illustrator 29.2.1, SVG Export Plug-In . SVG Version: 2.1.0 Build 116)  -->
  <defs>
    <style>
      .st0 {
        fill: #fff;
        stroke: #fff;
      }
    </style>
  </defs>
  <path class="st0" d="M12.7,7.5c1.7,0,3.1,1.4,3.1,3.1s-1.4,3.1-3.1,3.1-3.1-1.4-3.1-3.1,1.4-3.1,3.1-3.1ZM12.7,7.4c-1.7,0-3.2,1.4-3.2,3.2s1.4,3.2,3.2,3.2,3.2-1.4,3.2-3.2-1.4-3.2-3.2-3.2Z"/>
  <path class="st0" d="M22.8,7.5c.4,0,.8.2,1,.5.3.3.4.7.3,1.1-.3,2.1-1.2,4.1-2.6,5.8-1.4,1.6-3.2,2.9-5.2,3.5h0s0,0,0,0l.6,9.9h0c0,0,0,0,0,0l2.2,15.2h-4l-2.2-15.2h0c0,0-.6,0-.6,0h0c0,0-2.2,15.3-2.2,15.3h-4l2.2-15.2h0c0,0,.6-10,.6-10h0c0,0,0,0,0,0-2-.7-3.8-1.9-5.2-3.5-1.4-1.7-2.3-3.7-2.6-5.8,0-.4,0-.8.3-1.1.3-.3.6-.5,1-.5.7,0,1.2.5,1.3,1.2.3,2.1,1.3,4,2.9,5.4,1.6,1.4,3.7,2.2,5.8,2.2s4.2-.8,5.8-2.2c1.6-1.4,2.6-3.3,2.9-5.4,0-.7.7-1.2,1.3-1.2ZM22.8,7.4c-.7,0-1.3.5-1.4,1.2-.6,4.2-4.2,7.5-8.7,7.5s-8.1-3.3-8.7-7.5c0-.7-.7-1.2-1.4-1.2s-1.5.8-1.4,1.6c.6,4.4,3.7,8,7.8,9.4l-.6,9.9h0l-2.2,15.3h4.2l2.2-15.3h.4l2.2,15.3h4.2l-2.2-15.3h0l-.6-9.9c4.1-1.4,7.2-5,7.8-9.4.1-.9-.6-1.6-1.4-1.6Z"/>
</svg>