<?xml version="1.0" encoding="UTF-8"?>
<svg id="Layer_1" xmlns="http://www.w3.org/2000/svg" version="1.1" viewBox="0 0 28 46">
  <!-- Generator: Adobe Illustrator 29.0.1, SVG Export Plug-In . SVG Version: 2.1.0 Build 192)  -->
  <defs>
    <style>
      .st0 {
        fill: none;
        stroke: #fff;
        stroke-miterlimit: 10;
      }

      .st0, .st1 {
        opacity: 0;
      }

      .st1 {
        fill: #fff;
      }
    </style>
  </defs>
  <path class="st1" d="M21.7,9H4.3c-2.4,0-4.3,1.9-4.3,4.3v19.4c0,2.4,1.9,4.3,4.3,4.3h17.4c2.4,0,4.3-1.9,4.3-4.3V13.3c0-2.4-1.9-4.3-4.3-4.3ZM24.9,32c0,2.2-1.8,3.9-4,3.9H5.1c-2.2,0-4-1.8-4-3.9V14c0-2.2,1.8-3.9,4-3.9h15.8c2.2,0,4,1.8,4,3.9v18.1Z"/>
  <path class="st0" d="M6.2,4.8h13.6c.7,0,1.3.6,1.3,1.2v3H5v-3c0-.7.6-1.2,1.3-1.2h0Z"/>
  <path class="st0" d="M7.5,1.2h11c.7,0,1.3.6,1.3,1.2v2.3H6.2v-2.3c0-.7.6-1.2,1.3-1.2Z"/>
  <path class="st0" d="M19.8,41.2H6.2c-.7,0-1.3-.6-1.3-1.2v-3h16.1v3c0,.7-.6,1.2-1.3,1.2h0Z"/>
  <path class="st0" d="M18.5,44.8H7.5c-.7,0-1.3-.6-1.3-1.2v-2.3h13.5v2.3c0,.7-.6,1.2-1.3,1.2Z"/>
  <path class="st1" d="M28,21.6h-2v2.9h2v-2.9Z"/>
</svg>