<svg width="28" height="46" viewBox="0 0 28 46" fill="none" xmlns="http://www.w3.org/2000/svg">
<path d="M21.7026 9.04932H4.33246C1.93936 9.04932 0 10.9606 0 13.3191V32.6775C0 35.036 1.93936 36.951 4.33246 36.951H21.7026C24.0957 36.951 26.035 35.036 26.035 32.6775V13.3191C26.035 10.9606 24.0957 9.04932 21.7026 9.04932ZM24.9117 32.0428C24.9117 34.2174 23.1223 35.9809 20.9158 35.9809H5.12284C2.91636 35.9809 1.12703 34.2174 1.12703 32.0428V13.9538C1.12703 11.7793 2.91636 10.0158 5.12284 10.0158H20.9158C23.1223 10.0158 24.9117 11.7793 24.9117 13.9538V32.0428Z" fill="white"/>
<path d="M6.22433 4.77197H19.8145C20.5097 4.77197 21.0769 5.33094 21.0769 6.01613V9.049H4.95825V6.01613C4.95825 5.33094 5.52542 4.77197 6.22067 4.77197H6.22433Z" stroke="white" stroke-miterlimit="10"/>
<path d="M7.51242 1.18018H18.5265C19.2218 1.18018 19.7889 1.73915 19.7889 2.42434V4.77201H6.25V2.42434C6.25 1.73915 6.81717 1.18018 7.51242 1.18018Z" stroke="white" stroke-miterlimit="10"/>
<path d="M19.8145 41.2275H6.22432C5.52908 41.2275 4.9619 40.6686 4.9619 39.9834V36.9505H21.0806V39.9834C21.0806 40.6686 20.5134 41.2275 19.8182 41.2275H19.8145Z" stroke="white" stroke-miterlimit="10"/>
<path d="M18.5264 44.8193H7.51229C6.81704 44.8193 6.24987 44.2604 6.24987 43.5752V41.2275H19.7888V43.5752C19.7888 44.2604 19.2216 44.8193 18.5264 44.8193Z" stroke="white" stroke-miterlimit="10"/>
<path d="M28.0001 21.5737H26.0352V24.4263H28.0001V21.5737Z" fill="white"/>
</svg>
