<?xml version="1.0" encoding="UTF-8"?>
<svg id="Layer_1" xmlns="http://www.w3.org/2000/svg" version="1.1" viewBox="0 0 25 45">
  <!-- Generator: Adobe Illustrator 29.2.1, SVG Export Plug-In . SVG Version: 2.1.0 Build 116)  -->
  <defs>
    <style>
      .st0 {
        fill: none;
        stroke: #fff;
        stroke-miterlimit: 10;
      }

      .st1 {
        fill: #fff;
      }
    </style>
  </defs>
  <path class="st1" d="M19.1,13.5H4.2c-2.1,0-3.7,1.6-3.7,3.7v16.6c0,2,1.7,3.7,3.7,3.7h14.9c2.1,0,3.7-1.6,3.7-3.7v-16.6c0-2-1.7-3.7-3.7-3.7ZM21.9,33.3c0,1.9-1.5,3.4-3.4,3.4H4.9c-1.9,0-3.4-1.5-3.4-3.4v-15.5c0-1.9,1.5-3.4,3.4-3.4h13.5c1.9,0,3.4,1.5,3.4,3.4v15.5Z"/>
  <path class="st0" d="M5.8,9.9h11.6c.6,0,1.1.5,1.1,1.1v2.6H4.7v-2.6c0-.6.5-1.1,1.1-1.1h0Z"/>
  <path class="st0" d="M6.9,6.8h9.4c.6,0,1.1.5,1.1,1.1v2H5.9v-2c0-.6.5-1.1,1.1-1.1Z"/>
  <path class="st0" d="M17.5,41.1H5.8c-.6,0-1.1-.5-1.1-1.1v-2.6h13.8v2.6c0,.6-.5,1.1-1.1,1.1h0Z"/>
  <path class="st0" d="M16.4,44.2H6.9c-.6,0-1.1-.5-1.1-1.1v-2h11.6v2c0,.6-.5,1.1-1.1,1.1Z"/>
  <path class="st1" d="M24.5,24.3h-1.7v2.4h1.7v-2.4Z"/>
</svg>