<?xml version="1.0" encoding="UTF-8"?>
<svg id="Layer_1" xmlns="http://www.w3.org/2000/svg" version="1.1" viewBox="0 0 25 45">
  <!-- Generator: Adobe Illustrator 29.2.1, SVG Export Plug-In . SVG Version: 2.1.0 Build 116)  -->
  <defs>
    <style>
      .st0 {
        fill: none;
        stroke: #fff;
        stroke-miterlimit: 10;
      }

      .st1 {
        fill: #fff;
      }
    </style>
  </defs>
  <path class="st1" d="M17.2,18.5H6.6c-1.5,0-2.6,1.1-2.6,2.6v11.8c0,1.4,1.2,2.6,2.6,2.6h10.6c1.5,0,2.6-1.1,2.6-2.6v-11.8c0-1.4-1.2-2.6-2.6-2.6ZM19.2,32.5c0,1.3-1.1,2.4-2.4,2.4H7.1c-1.3,0-2.4-1.1-2.4-2.4v-11c0-1.3,1.1-2.4,2.4-2.4h9.6c1.3,0,2.4,1.1,2.4,2.4v11h0Z"/>
  <path class="st0" d="M7.8,15.9h8.2c.4,0,.8.4.8.8v1.8H7v-1.8c0-.4.4-.8.8-.8h0Z"/>
  <path class="st0" d="M8.5,13.8h6.7c.4,0,.8.4.8.8v1.4H7.8v-1.4c0-.4.4-.8.8-.8h0Z"/>
  <path class="st0" d="M16,38H7.8c-.4,0-.8-.4-.8-.8v-1.8h9.8v1.8c0,.4-.4.8-.8.8h0Z"/>
  <path class="st0" d="M15.3,40.2h-6.7c-.4,0-.8-.4-.8-.8v-1.4h8.2v1.4c0,.4-.4.8-.8.8h0Z"/>
  <path class="st1" d="M21,26.1h-1.2v1.7h1.2v-1.7Z"/>
</svg>